HIERARCHY
ROOT Hips
{
	OFFSET -0.001795 -0.223333 0.028219
	CHANNELS 6 Xposition Yposition Zposition Zrotation Yrotation Xrotation 
	JOINT LeftUpLeg
	{
		OFFSET 0.069520 -0.091406 -0.006815
		CHANNELS 3 Zrotation Yrotation Xrotation
		JOINT LeftLeg
		{
			OFFSET 0.034277 -0.375199 -0.004496
			CHANNELS 3 Zrotation Yrotation Xrotation
			JOINT LeftFoot
			{
				OFFSET -0.013596 -0.397961 -0.043693
				CHANNELS 3 Zrotation Yrotation Xrotation
				JOINT LeftToe
				{
					OFFSET 0.026358 -0.055791 0.119288
					CHANNELS 3 Zrotation Yrotation Xrotation
					End Site
					{
						OFFSET 0.000000 0.000000 0.000000
					}
				}
			}
		}
	}
	JOINT RightUpLeg
	{
		OFFSET -0.067670 -0.090522 -0.004320
		CHANNELS 3 Zrotation Yrotation Xrotation
		JOINT RightLeg
		{
			OFFSET -0.038290 -0.382569 -0.008850
			CHANNELS 3 Zrotation Yrotation Xrotation
			JOINT RightFoot
			{
				OFFSET 0.015774 -0.398415 -0.042312
				CHANNELS 3 Zrotation Yrotation Xrotation
				JOINT RightToe
				{
					OFFSET -0.025372 -0.048144 0.123348
					CHANNELS 3 Zrotation Yrotation Xrotation
					End Site
					{
						OFFSET 0.000000 0.000000 0.000000
					}
				}
			}
		}
	}
	JOINT Spine
	{
		OFFSET -0.002533 0.108963 -0.026696
		CHANNELS 3 Zrotation Yrotation Xrotation
		JOINT Spine1
		{
			OFFSET 0.005487 0.135180 0.001092
			CHANNELS 3 Zrotation Yrotation Xrotation
			JOINT Spine2
			{
				OFFSET 0.001457 0.052922 0.025425
				CHANNELS 3 Zrotation Yrotation Xrotation
				JOINT Neck
				{
					OFFSET -0.002778 0.213870 -0.042857
					CHANNELS 3 Zrotation Yrotation Xrotation
					JOINT Head
					{
						OFFSET 0.005152 0.064970 0.051349
						CHANNELS 3 Zrotation Yrotation Xrotation
						End Site
						{
							OFFSET 0.000000 0.000000 0.000000
						}
					}
				}
				JOINT LeftShoulder
				{
					OFFSET 0.078845 0.121749 -0.034090
					CHANNELS 3 Zrotation Yrotation Xrotation
					JOINT LeftArm
					{
						OFFSET 0.090977 0.030469 -0.008868
						CHANNELS 3 Zrotation Yrotation Xrotation
						JOINT LeftForeArm
						{
							OFFSET 0.259612 -0.012772 -0.027456
							CHANNELS 3 Zrotation Yrotation Xrotation
							JOINT LeftHand
							{
								OFFSET 0.249234 0.008986 -0.001171
								CHANNELS 3 Zrotation Yrotation Xrotation
								End Site
								{
									OFFSET 0.000000 0.000000 0.000000
								}
							}
						}
					}
				}
				JOINT RightShoulder
				{
					OFFSET -0.081759 0.118833 -0.038615
					CHANNELS 3 Zrotation Yrotation Xrotation
					JOINT RightArm
					{
						OFFSET -0.096012 0.032551 -0.009143
						CHANNELS 3 Zrotation Yrotation Xrotation
						JOINT RightForeArm
						{
							OFFSET -0.253742 -0.013329 -0.021401
							CHANNELS 3 Zrotation Yrotation Xrotation
							JOINT RightHand
							{
								OFFSET -0.255298 0.007772 -0.005559
								CHANNELS 3 Zrotation Yrotation Xrotation
								End Site
								{
									OFFSET 0.000000 0.000000 0.000000
								}
							}
						}
					}
				}
			}
		}
	}
}
MOTION
Frames: 7
Frame Time: 0.050000
0.000000 0.945569 0.000000 -0.442657 -2.214956 -0.031673 3.808209 0.156124 3.055941 -2.754392 0.319118 -0.377831 9.982219 20.232824 15.273236 0.000000 0.000000 0.000000 -5.786527 0.121612 0.901728 3.024870 -0.290084 1.113649 -3.588598 -12.006967 12.128763 0.000000 0.000000 0.000000 6.824532 0.306582 -3.470427 -5.074341 2.032528 -13.861431 -1.990678 7.721374 23.580669 9.824466 -3.228682 -24.135641 0.000000 0.000000 0.000000 -10.242982 -13.783268 4.568123 -22.036581 4.978267 -3.719080 -92.767355 -15.452234 13.749928 0.000000 0.000000 0.000000 18.012595 0.149176 0.521259 28.584763 0.696317 -4.150654 91.045083 20.245269 22.914569 0.000000 0.000000 0.000000 
0.000282 0.944422 -0.001801 -0.407629 -1.980272 0.015216 4.205071 0.142188 3.098511 -3.498229 0.401728 -0.795871 9.849990 20.060353 14.840110 0.000000 0.000000 0.000000 -5.123179 0.092603 0.934121 1.797323 -0.162129 0.848814 -3.800456 -12.314207 11.822047 0.000000 0.000000 0.000000 6.775890 0.434204 -4.747726 -5.342641 2.135372 -13.624464 -1.950352 8.410740 24.490678 10.971107 -3.703646 -24.741582 0.000000 0.000000 0.000000 -9.832349 -14.353052 4.703628 -18.705858 4.646675 -3.043416 -95.645557 -14.245722 12.379544 0.000000 0.000000 0.000000 16.687089 -0.635051 0.282928 28.756675 1.118781 -4.187761 91.293204 19.757909 23.061835 0.000000 0.000000 0.000000 
0.000492 0.944611 -0.003965 -0.021790 -0.201263 0.539406 4.605592 0.035095 1.840180 -4.623688 0.506533 -0.313255 8.893983 18.768206 14.382650 0.000000 0.000000 0.000000 -5.321741 0.073521 1.105129 1.692809 -0.183504 -0.199907 -4.595129 -13.680081 12.394309 0.000000 0.000000 0.000000 5.950042 0.496578 -5.966490 -4.359273 1.824849 -14.247411 -2.967142 7.567656 26.362330 12.024532 -4.007618 -26.688181 0.000000 0.000000 0.000000 -9.389631 -14.814020 4.914602 -17.881001 4.163421 -2.905256 -95.902534 -13.549516 11.353783 0.000000 0.000000 0.000000 17.212515 0.778812 1.172140 26.585837 0.437479 -4.136602 89.095310 20.101741 22.175357 0.000000 0.000000 0.000000 
0.000552 0.945508 -0.006362 0.031196 0.582288 0.706255 4.440743 0.009167 1.452949 -4.303650 0.463261 -0.436405 8.466622 18.198114 14.448237 0.000000 0.000000 0.000000 -5.535941 0.109637 0.376301 2.110787 -0.211212 0.724798 -4.963786 -14.311695 12.738474 0.000000 0.000000 0.000000 5.805735 0.588701 -7.155696 -4.323365 1.837796 -13.758975 -3.339576 6.788698 27.516061 12.565615 -4.394922 -26.858937 0.000000 0.000000 0.000000 -9.881402 -15.357295 5.222538 -15.127650 3.932555 -2.420834 -96.577547 -12.802483 10.519919 0.000000 0.000000 0.000000 17.093045 1.031764 1.277251 24.988260 0.447859 -3.954404 90.876971 18.080990 20.335053 0.000000 0.000000 0.000000 
0.000349 0.946211 -0.008796 0.107134 0.300078 0.228452 4.034409 0.018308 1.277656 -3.762204 0.409260 0.575567 8.635833 18.437742 14.670396 0.000000 0.000000 0.000000 -5.881031 0.130025 0.088752 2.543198 -0.241034 1.788280 -4.813915 -14.071035 12.719399 0.000000 0.000000 0.000000 5.606077 0.553232 -6.745453 -3.924955 1.702484 -13.490736 -3.900833 6.943560 27.623027 12.688548 -4.774974 -25.416587 0.000000 0.000000 0.000000 -9.411315 -15.609060 5.328268 -14.503935 3.535860 -2.283887 -96.099776 -11.930380 9.302213 0.000000 0.000000 0.000000 17.188402 1.497461 1.515171 23.104569 0.595642 -3.641837 90.859205 17.330858 19.094227 0.000000 0.000000 0.000000 
-0.000031 0.947537 -0.010934 0.127778 0.100472 0.085777 3.931940 0.018749 1.184059 -3.612570 0.393672 0.794023 8.675274 18.500549 15.164582 0.000000 0.000000 0.000000 -5.989258 0.141651 -0.081836 2.707737 -0.256050 2.035423 -4.659844 -13.859747 13.064873 0.000000 0.000000 0.000000 5.742594 0.586759 -6.991186 -4.432775 1.872643 -13.473825 -3.509750 7.161957 28.593728 12.231563 -4.592620 -25.068834 0.000000 0.000000 0.000000 -9.438652 -16.305845 5.637127 -13.566324 3.264709 -2.120906 -96.400448 -10.771199 7.823978 0.000000 0.000000 0.000000 17.276869 1.480181 1.558112 22.416837 0.431530 -3.619103 91.649475 15.987578 17.786488 0.000000 0.000000 0.000000 
-0.000439 0.947925 -0.012798 0.042492 -0.139945 -0.446626 4.037481 0.040724 1.487305 -3.616155 0.396049 1.131445 8.769439 18.624085 15.298921 0.000000 0.000000 0.000000 -5.896192 0.139538 -0.168224 2.713523 -0.241405 2.929235 -4.538800 -13.665648 13.017735 0.000000 0.000000 0.000000 5.774962 0.571405 -6.666426 -4.352107 1.854497 -12.771372 -3.673694 6.859978 28.651764 11.974099 -4.698405 -24.171171 0.000000 0.000000 0.000000 -8.946062 -15.931861 5.539825 -13.030081 3.675334 -2.074026 -97.355768 -9.428120 6.394160 0.000000 0.000000 0.000000 16.911233 1.823514 1.623135 21.744729 -0.058116 -3.544571 92.747028 14.946600 16.627857 0.000000 0.000000 0.000000 
